<?xml version="1.0" encoding="UTF-8" standalone="no"?>
<!DOCTYPE svg PUBLIC "-//W3C//DTD SVG 1.1//EN" "http://www.w3.org/Graphics/SVG/1.1/DTD/svg11.dtd">
<svg xmlns="http://www.w3.org/2000/svg" version="1.1" viewBox="0.00 0.00 1560.00 309.00">
<g stroke-width="2.00" fill="none" stroke-linecap="butt">
<path stroke="#63bab8" vector-effect="non-scaling-stroke" d="
  M 585.30 185.30
  Q 586.13 190.27 586.56 191.49
  Q 592.48 207.98 598.95 224.27
  Q 599.00 224.40 601.93 232.71
  Q 603.45 237.05 605.62 240.88"
/>
<path stroke="#99d4cc" vector-effect="non-scaling-stroke" d="
  M 605.62 240.88
  Q 604.54 241.16 604.76 241.65"
/>
<path stroke="#89bbb6" vector-effect="non-scaling-stroke" d="
  M 643.14 280.26
  Q 640.80 269.29 633.97 261.30
  Q 629.63 256.23 625.40 253.10
  Q 617.17 247.01 605.62 240.88"
/>
</g>
<path fill="#4cc4b8" d="
  M 587.43 24.74
  Q 591.23 14.89 598.55 9.49
  Q 603.93 5.52 609.82 4.51
  Q 618.22 3.07 624.09 4.08
  Q 634.06 5.80 641.68 14.72
  C 649.63 24.04 650.57 32.08 649.12 43.69
  C 647.62 55.74 638.36 63.51 627.46 68.29
  Q 623.93 69.84 620.50 69.84
  C 614.09 69.85 605.39 68.26 599.65 64.53
  C 586.67 56.09 581.91 39.02 587.43 24.74
  Z"
/>
<path fill="#2d2c2a" d="
  M 846.16 224.35
  Q 844.03 225.59 841.92 227.24
  Q 833.73 233.70 824.45 237.65
  C 807.30 244.97 786.84 243.25 769.85 235.97
  Q 740.57 223.43 727.08 194.41
  C 721.15 181.67 718.99 168.61 719.50 154.71
  C 720.87 117.60 744.05 86.01 779.78 75.65
  C 810.25 66.81 841.51 74.76 864.86 96.15
  Q 865.51 96.74 864.97 97.43
  C 859.49 104.51 854.02 111.85 848.18 118.33
  A 1.54 1.53 -46.1 0 1 845.94 118.38
  C 835.10 107.36 822.56 100.10 807.24 99.48
  C 784.94 98.58 763.41 112.32 754.63 132.53
  Q 751.74 139.18 750.58 145.39
  C 747.59 161.41 749.78 178.07 759.11 191.82
  C 769.90 207.72 791.00 217.22 810.16 214.08
  Q 825.78 211.52 838.01 199.61
  Q 842.88 194.87 844.90 189.70
  C 846.63 185.27 846.50 179.36 846.21 174.56
  A 1.43 1.43 0.0 0 0 844.76 173.21
  L 809.99 173.85
  A 0.92 0.92 0.0 0 1 809.10 173.20
  Q 808.61 171.51 808.61 169.94
  Q 808.61 159.43 808.62 148.15
  Q 808.62 146.81 809.96 146.81
  Q 839.46 146.78 869.15 146.72
  Q 871.36 146.72 873.42 147.01
  A 0.98 0.98 0.0 0 1 874.26 147.97
  Q 874.29 190.70 874.21 235.52
  Q 874.21 237.74 873.92 240.04
  A 0.41 0.40 3.1 0 1 873.51 240.40
  L 848.53 240.11
  A 0.85 0.84 0.0 0 1 847.69 239.28
  L 847.39 225.04
  A 0.82 0.82 0.0 0 0 846.16 224.35
  Z"
/>
<path fill="#2d2c2a" d="
  M 496.59 227.50
  C 488.78 235.63 478.93 240.51 467.27 241.53
  C 447.35 243.28 428.39 236.23 415.56 220.95
  C 392.91 193.99 395.51 151.26 425.12 129.73
  Q 439.29 119.42 455.71 118.52
  Q 465.23 118.00 472.53 119.34
  C 480.62 120.82 487.56 125.00 494.55 129.55
  A 1.12 1.12 0.0 0 0 496.29 128.60
  L 495.87 73.32
  A 0.72 0.71 -11.1 0 1 496.33 72.64
  Q 497.16 72.32 498.00 72.34
  Q 509.83 72.49 522.66 72.38
  Q 524.09 72.37 524.08 73.80
  C 523.72 129.31 524.49 183.86 524.36 238.67
  A 1.04 1.03 -89.2 0 1 523.31 239.70
  L 499.49 239.43
  A 1.46 1.45 0.2 0 1 498.05 237.99
  L 497.94 228.04
  A 0.79 0.78 66.7 0 0 496.59 227.50
  Z
  M 451.78 146.62
  C 431.15 155.79 424.23 177.68 434.26 197.67
  C 439.79 208.69 452.17 215.42 464.41 215.93
  C 476.18 216.41 487.56 209.96 493.92 199.99
  C 497.89 193.76 497.57 185.68 497.29 178.43
  C 496.88 167.74 495.54 159.06 486.77 151.79
  C 477.26 143.91 463.50 141.41 451.78 146.62
  Z"
/>
<rect fill="#2d2c2a" x="-14.28" y="-83.55" transform="translate(371.13,156.45) rotate(0.1)" width="28.56" height="167.10" rx="1.63"/>
<path fill="#2d2c2a" d="
  M 1445.71 130.34
  Q 1445.89 130.37 1446.06 130.28
  C 1450.49 127.77 1454.83 124.74 1459.60 123.04
  C 1478.78 116.23 1500.86 117.93 1514.84 133.58
  Q 1524.01 143.85 1526.02 156.05
  Q 1527.46 164.84 1527.31 180.39
  Q 1526.99 211.45 1526.98 236.92
  Q 1526.98 237.83 1526.86 238.75
  A 0.86 0.85 3.8 0 1 1526.01 239.49
  L 1500.34 239.56
  Q 1498.80 239.57 1498.80 238.03
  Q 1498.84 206.56 1498.98 170.39
  Q 1499.00 165.41 1497.62 161.46
  C 1493.95 150.93 1485.38 145.97 1474.28 145.69
  C 1460.41 145.33 1444.48 153.86 1444.51 169.69
  Q 1444.56 203.19 1444.07 237.86
  Q 1444.05 239.36 1442.55 239.37
  L 1417.94 239.51
  A 1.31 1.30 0.2 0 1 1416.63 238.20
  Q 1417.08 154.42 1416.77 74.65
  A 0.87 0.87 0.0 0 1 1417.61 73.78
  Q 1429.72 73.41 1443.51 73.83
  A 1.65 1.64 -89.1 0 1 1445.10 75.48
  L 1445.00 129.49
  Q 1445.00 130.21 1445.71 130.34
  Z"
/>
<path fill="#2d2c2a" d="
  M 138.07 155.24
  Q 158.59 165.86 161.13 190.35
  Q 162.17 200.48 158.40 208.99
  Q 148.21 231.94 124.71 238.61
  Q 118.06 240.50 108.13 240.43
  Q 71.42 240.18 35.46 240.26
  A 0.73 0.72 -90.0 0 1 34.74 239.53
  L 34.61 75.75
  A 0.83 0.82 -0.0 0 1 35.44 74.93
  Q 72.71 75.06 108.80 74.81
  C 135.35 74.63 156.51 94.33 157.02 121.26
  C 157.27 135.03 150.09 147.13 138.05 153.65
  A 0.90 0.90 0.0 0 0 138.07 155.24
  Z
  M 64.26 103.82
  L 64.32 141.76
  A 1.74 1.74 0.0 0 0 66.07 143.49
  L 106.90 143.42
  A 20.97 19.48 -0.1 0 0 127.83 123.90
  L 127.83 121.44
  A 20.97 19.48 -0.1 0 0 106.82 102.00
  L 65.99 102.07
  A 1.74 1.74 0.0 0 0 64.26 103.82
  Z
  M 64.36 171.18
  L 64.30 210.78
  A 1.34 1.34 0.0 0 0 65.63 212.12
  L 108.54 212.20
  A 22.89 20.89 0.1 0 0 131.47 191.35
  L 131.47 190.85
  A 22.89 20.89 0.1 0 0 108.62 169.92
  L 65.71 169.84
  A 1.34 1.34 0.0 0 0 64.36 171.18
  Z"
/>
<path fill="#2d2c2a" d="
  M 327.57 108.44
  Q 319.54 112.23 312.27 107.98
  C 308.75 105.92 305.59 101.49 304.96 97.43
  C 303.91 90.63 304.34 83.86 309.70 78.93
  Q 313.10 75.79 319.02 75.38
  C 325.58 74.92 332.11 77.08 335.44 82.98
  C 340.84 92.54 337.34 103.83 327.57 108.44
  Z"
/>
<path fill="#379f8c" d="
  M 642.44 147.31
  C 631.06 142.41 619.31 138.44 608.72 132.56
  C 598.70 127.00 589.79 117.94 588.84 106.47
  C 588.05 96.90 589.51 88.48 597.55 82.24
  C 605.59 76.00 614.95 81.09 622.29 86.51
  Q 627.11 90.07 634.53 93.43
  Q 642.69 97.12 650.59 100.72
  Q 662.68 106.23 672.71 113.55
  Q 677.62 117.14 683.26 122.73
  C 694.45 133.84 699.71 147.72 700.36 163.22
  Q 700.84 174.56 700.07 181.88
  C 699.45 187.78 698.73 194.11 697.67 200.00
  Q 696.62 205.82 695.80 211.15
  Q 695.49 213.10 695.11 211.17
  C 690.49 187.79 676.95 165.34 655.62 153.66
  Q 649.88 150.52 642.44 147.31
  Z"
/>
<path fill="#2d2c2a" d="
  M 1358.58 148.83
  A 1.69 0.65 -66.0 0 0 1358.57 149.02
  Q 1358.69 175.61 1358.84 196.98
  C 1358.99 218.87 1380.66 217.37 1394.96 211.00
  A 1.22 1.22 0.0 0 1 1396.67 212.26
  Q 1395.60 221.49 1399.20 231.69
  Q 1400.04 234.06 1399.67 236.25
  Q 1399.58 236.82 1399.07 237.09
  Q 1395.83 238.80 1392.24 239.66
  Q 1377.10 243.29 1363.35 240.91
  Q 1338.22 236.54 1332.16 213.06
  Q 1330.62 207.06 1330.54 197.26
  Q 1330.36 174.55 1330.48 150.50
  Q 1330.49 149.95 1330.51 149.38
  A 1.23 1.23 0.0 0 0 1329.28 148.09
  L 1304.53 148.16
  A 0.73 0.73 0.0 0 1 1303.80 147.42
  Q 1304.02 134.28 1305.55 121.56
  Q 1305.62 120.97 1306.22 120.97
  L 1328.30 120.99
  A 1.53 1.53 0.0 0 0 1329.83 119.45
  L 1329.80 85.93
  Q 1329.80 84.49 1331.24 84.49
  L 1357.69 84.42
  Q 1359.22 84.41 1359.21 85.94
  L 1358.98 119.01
  A 1.67 1.67 0.0 0 0 1360.64 120.69
  L 1396.50 120.87
  A 0.90 0.89 89.3 0 1 1397.39 121.75
  Q 1397.63 133.24 1397.33 144.75
  Q 1397.30 146.00 1397.16 146.51
  Q 1396.89 147.44 1395.92 147.44
  Q 1376.79 147.48 1359.59 147.38
  Q 1358.80 147.37 1358.58 148.83
  Z"
/>
<path fill="#2d2c2a" d="
  M 1012.66 236.94
  C 984.63 224.50 969.27 195.42 976.70 165.51
  C 984.92 132.45 1015.37 116.71 1047.84 119.44
  C 1065.28 120.90 1082.83 130.14 1092.68 144.58
  C 1103.83 160.89 1107.58 179.88 1100.87 198.83
  Q 1093.71 219.02 1076.04 230.76
  C 1057.26 243.22 1033.77 246.31 1012.66 236.94
  Z
  M 1033.86 145.48
  C 1021.85 147.47 1011.82 153.80 1006.95 165.26
  C 1000.76 179.82 1004.00 199.01 1017.15 209.01
  Q 1032.22 220.46 1050.81 214.84
  C 1063.29 211.06 1072.36 200.20 1074.34 187.17
  C 1078.13 162.19 1059.49 141.23 1033.86 145.48
  Z"
/>
<path fill="#2d2c2a" d="
  M 922.28 134.12
  Q 921.17 139.06 924.91 135.64
  C 928.32 132.53 931.85 129.12 935.56 126.69
  Q 949.11 117.79 966.28 119.99
  A 1.70 1.69 -86.0 0 1 967.76 121.70
  L 967.37 153.54
  A 1.08 1.07 -79.0 0 1 965.91 154.53
  C 952.84 149.44 939.73 150.81 930.25 161.22
  C 925.67 166.26 923.11 172.49 923.10 179.58
  Q 923.05 207.38 923.23 238.83
  A 1.39 1.39 0.0 0 1 921.83 240.23
  L 895.71 240.13
  A 1.17 1.17 0.0 0 1 894.54 238.96
  L 894.48 122.50
  A 1.32 1.32 0.0 0 1 895.81 121.18
  Q 907.01 121.32 918.24 121.61
  Q 920.53 121.67 922.84 122.01
  Q 923.22 122.07 923.24 122.45
  Q 923.52 128.65 922.28 134.12
  Z"
/>
<path fill="#2d2c2a" d="
  M 1161.05 199.94
  Q 1161.75 197.73 1162.49 195.71
  Q 1173.53 165.60 1182.82 139.75
  Q 1186.51 129.48 1188.58 121.67
  Q 1188.77 120.95 1189.51 120.95
  L 1214.08 120.98
  A 2.07 2.06 -9.4 0 1 1216.02 122.36
  C 1220.46 135.06 1224.49 147.44 1229.28 160.43
  Q 1234.57 174.78 1240.85 193.81
  Q 1241.42 195.56 1242.29 197.41
  Q 1243.42 199.84 1244.29 197.30
  Q 1253.51 170.18 1260.79 147.27
  Q 1264.82 134.60 1268.06 122.05
  A 1.73 1.71 7.1 0 1 1269.73 120.76
  L 1297.78 120.77
  A 0.70 0.70 0.0 0 1 1298.46 121.66
  Q 1295.59 132.12 1291.91 142.49
  Q 1286.27 158.41 1281.31 173.74
  C 1274.29 195.44 1266.44 216.98 1258.76 238.34
  A 2.19 2.19 0.0 0 1 1256.74 239.79
  L 1231.05 240.25
  A 0.86 0.85 79.3 0 1 1230.24 239.69
  Q 1216.74 201.83 1204.39 164.70
  Q 1204.13 163.93 1203.42 163.53
  A 1.13 1.13 0.0 0 0 1201.81 164.12
  C 1197.66 175.38 1193.33 186.93 1189.38 198.43
  Q 1182.40 218.73 1174.92 239.21
  Q 1174.62 240.05 1173.73 240.04
  L 1148.33 239.86
  A 1.74 1.73 -10.5 0 1 1146.73 238.77
  Q 1134.98 209.66 1124.54 179.54
  Q 1117.99 160.68 1110.53 139.19
  Q 1107.37 130.11 1104.70 121.87
  A 0.84 0.83 -8.4 0 1 1105.52 120.78
  L 1133.52 121.29
  A 1.94 1.93 81.0 0 1 1135.32 122.61
  Q 1147.65 159.55 1158.98 196.30
  C 1159.39 197.65 1159.17 199.20 1160.34 200.15
  Q 1160.85 200.56 1161.05 199.94
  Z"
/>
<path fill="#2d2c2a" d="
  M 307.77 238.36
  L 307.75 122.58
  A 1.50 1.50 0.0 0 1 309.24 121.08
  L 334.53 120.98
  A 1.50 1.50 0.0 0 1 336.03 122.48
  L 335.55 238.48
  A 1.50 1.50 0.0 0 1 334.04 239.97
  L 309.26 239.86
  A 1.50 1.50 0.0 0 1 307.77 238.36
  Z"
/>
<path fill="#2d2c2a" d="
  M 257.83 228.31
  C 244.40 242.87 219.97 246.49 202.41 238.54
  Q 185.89 231.05 179.32 214.46
  C 175.25 204.18 175.02 192.58 175.02 181.75
  Q 175.02 146.97 174.57 125.53
  Q 174.55 124.30 174.42 122.96
  Q 174.28 121.52 175.73 121.52
  L 201.23 121.52
  A 1.08 1.07 89.7 0 1 202.30 122.59
  Q 202.47 151.04 202.52 179.33
  C 202.53 184.70 202.74 189.98 203.10 195.24
  Q 203.32 198.44 204.83 201.43
  Q 210.36 212.40 222.63 214.50
  C 234.84 216.59 246.85 211.52 254.16 201.16
  Q 257.98 195.74 257.95 189.49
  C 257.83 166.17 257.52 144.11 257.95 122.61
  Q 257.96 121.68 258.90 121.65
  Q 271.62 121.32 284.92 121.63
  A 1.14 1.13 0.8 0 1 286.03 122.76
  L 285.96 238.90
  A 1.34 1.33 0.4 0 1 284.60 240.23
  L 261.45 239.92
  A 1.41 1.40 1.6 0 1 260.06 238.46
  Q 260.25 233.95 259.84 229.00
  Q 259.62 226.37 257.83 228.31
  Z"
/>
<path fill="#72d2ce" d="
  M 585.30 185.30
  Q 586.13 190.27 586.56 191.49
  Q 592.48 207.98 598.95 224.27
  Q 599.00 224.40 601.93 232.71
  Q 603.45 237.05 605.62 240.88
  Q 604.54 241.16 604.76 241.65
  Q 603.20 238.67 599.72 237.25
  Q 584.92 231.22 570.61 224.10
  Q 560.33 218.98 553.69 211.43
  C 550.47 207.76 546.64 201.66 545.25 196.81
  Q 539.62 177.25 544.80 159.83
  C 547.27 151.54 551.46 143.91 556.21 137.19
  Q 556.56 136.69 557.07 136.33
  Q 557.82 135.79 557.94 136.70
  C 558.82 143.24 558.14 150.09 560.19 156.35
  Q 562.97 164.85 564.94 168.05
  Q 571.57 178.83 585.30 185.30
  Z"
/>
<path fill="#53a1a2" d="
  M 585.30 185.30
  C 589.08 186.87 592.78 188.66 596.66 189.97
  Q 612.14 195.19 624.76 201.19
  C 632.58 204.91 640.99 211.65 645.57 219.37
  Q 652.71 231.43 653.45 243.97
  Q 654.62 263.98 643.14 280.26
  Q 640.80 269.29 633.97 261.30
  Q 629.63 256.23 625.40 253.10
  Q 617.17 247.01 605.62 240.88
  Q 603.45 237.05 601.93 232.71
  Q 599.00 224.40 598.95 224.27
  Q 592.48 207.98 586.56 191.49
  Q 586.13 190.27 585.30 185.30
  Z"
/>
<path fill="#bfd5c9" d="
  M 605.62 240.88
  Q 617.17 247.01 625.40 253.10
  Q 629.63 256.23 633.97 261.30
  Q 640.80 269.29 643.14 280.26
  Q 633.96 291.96 619.51 298.54
  C 617.16 299.62 614.73 300.78 612.07 299.91
  C 609.95 299.22 606.51 298.15 605.59 295.97
  Q 605.00 294.58 604.99 293.50
  Q 604.87 277.94 605.44 246.25
  Q 605.47 244.57 604.76 241.65
  Q 604.54 241.16 605.62 240.88
  Z"
/>
</svg>
