<?xml version="1.0" encoding="UTF-8" standalone="no"?>
<!DOCTYPE svg PUBLIC "-//W3C//DTD SVG 1.1//EN" "http://www.w3.org/Graphics/SVG/1.1/DTD/svg11.dtd">
<svg xmlns="http://www.w3.org/2000/svg" version="1.1" viewBox="0.00 0.00 102.00 174.00">
<g stroke-width="2.00" fill="none" stroke-linecap="butt">
<path stroke="#338c7c" stroke-opacity="0.573" vector-effect="non-scaling-stroke" d="
  M 90.50 122.24
  Q 88.51 118.30 87.98 114.69"
/>
<path stroke="#42b1a2" vector-effect="non-scaling-stroke" d="
  M 87.98 114.69
  Q 88.17 114.70 88.28 114.70
  A 0.25 0.25 0.0 0 0 88.49 114.38
  Q 86.17 107.08 81.62 102.13"
/>
<path stroke="#338c7c" stroke-opacity="0.573" vector-effect="non-scaling-stroke" d="
  M 81.62 102.13
  L 73.27 93.74"
/>
<path stroke="#44ada2" stroke-opacity="0.573" vector-effect="non-scaling-stroke" d="
  M 81.62 102.13
  L 87.98 114.69"
/>
</g>
<circle fill="#4cc4b7" cx="50.49" cy="32.15" r="16.98"/>
<path fill="#389e8c" d="
  M 90.50 122.24
  Q 88.51 118.30 87.98 114.69
  Q 88.17 114.70 88.28 114.70
  A 0.25 0.25 0.0 0 0 88.49 114.38
  Q 86.17 107.08 81.62 102.13
  L 73.27 93.74
  Q 61.36 87.50 48.48 82.73
  Q 45.09 81.47 40.32 77.13
  Q 36.18 73.36 35.73 67.65
  C 34.99 58.31 41.20 49.65 50.88 56.30
  Q 54.88 59.04 59.45 60.95
  C 69.68 65.22 79.17 69.88 86.26 78.36
  C 90.67 83.64 92.54 89.34 93.11 96.46
  Q 94.13 109.32 90.50 122.24
  Z"
/>
<path fill="#0e1110" fill-opacity="0.145" d="
  M 33.97 107.61
  Q 32.86 106.90 33.06 107.24
  L 29.21 103.76
  Q 28.71 101.38 30.73 100.34
  Q 31.18 100.11 31.30 99.62
  Q 31.67 98.21 30.84 96.98
  Q 30.56 96.57 30.49 96.07
  Q 29.64 89.89 28.95 86.98
  Q 28.29 84.27 25.97 83.28
  Q 24.89 82.21 22.20 81.97
  Q 23.71 79.79 27.64 80.33
  Q 28.17 80.40 28.58 80.06
  Q 30.08 78.78 31.74 77.74
  C 32.73 77.12 33.21 76.36 33.86 75.44
  Q 34.20 74.96 34.54 75.44
  Q 37.16 79.09 40.89 82.68
  C 42.10 83.84 43.56 83.75 45.01 84.38
  Q 45.71 84.69 46.23 85.20
  Q 47.90 86.83 49.79 88.17
  Q 50.26 88.50 49.87 88.93
  Q 48.47 90.47 46.99 90.36
  Q 46.40 90.31 46.81 90.74
  Q 47.01 90.95 46.81 91.18
  Q 46.30 91.75 47.06 91.68
  Q 47.24 91.66 47.33 91.82
  Q 47.44 92.04 47.24 92.17
  Q 45.92 93.03 45.82 94.66
  Q 45.78 95.27 45.17 95.32
  L 41.08 95.67
  A 0.90 0.89 78.7 0 1 40.17 95.06
  Q 39.68 93.52 38.09 93.17
  Q 37.58 93.06 37.25 93.47
  Q 36.46 94.46 35.31 94.95
  A 1.07 1.06 -7.9 0 0 34.67 95.79
  Q 34.60 96.22 34.28 96.49
  A 2.47 2.29 44.4 0 0 34.46 100.16
  Q 34.84 100.46 34.85 100.93
  Q 34.91 102.50 34.84 104.15
  Q 34.80 104.90 35.44 104.50
  Q 35.74 104.32 35.97 104.67
  Q 36.23 105.08 36.00 105.50
  Q 35.77 105.91 35.30 105.83
  Q 34.67 105.73 34.38 106.29
  Q 34.07 106.88 33.97 107.61
  Z"
/>
<path fill="#61b4b5" fill-opacity="0.890" d="
  M 22.20 81.97
  Q 24.89 82.21 25.97 83.28
  Q 22.63 81.38 21.54 83.05
  Q 21.02 83.85 21.97 83.72
  Q 24.13 83.41 24.48 84.17
  Q 23.30 84.50 21.98 84.36
  Q 21.75 84.34 21.56 84.45
  Q 21.31 84.58 21.23 84.85
  Q 21.09 85.29 21.51 85.49
  Q 22.01 85.73 22.57 85.60
  A 0.65 0.63 66.4 0 1 23.26 85.88
  Q 23.80 86.74 23.56 87.67
  A 0.27 0.27 0.0 0 1 23.14 87.82
  Q 23.01 87.72 22.85 87.70
  Q 22.57 87.66 22.43 87.90
  L 21.39 89.71
  Q 21.17 90.09 21.28 90.51
  Q 21.83 92.70 22.22 94.94
  Q 22.65 97.46 23.90 98.96
  Q 25.68 101.09 27.79 102.40
  L 29.21 103.76
  L 33.06 107.24
  Q 30.72 107.01 28.76 105.44
  Q 28.18 104.97 28.26 105.72
  Q 28.55 108.47 30.38 110.52
  A 1.23 1.22 -41.1 0 0 32.10 110.63
  Q 32.91 109.93 34.15 110.07
  Q 34.58 110.12 34.74 110.52
  Q 35.09 111.36 36.13 111.56
  Q 36.37 111.61 36.41 111.85
  Q 36.45 112.09 36.24 112.23
  A 0.50 0.49 -26.9 0 0 36.04 112.84
  Q 36.37 113.61 37.21 113.27
  A 0.12 0.01 -45.6 0 1 37.13 113.37
  L 36.85 113.65
  Q 36.68 113.82 36.68 114.06
  Q 36.66 115.93 37.71 117.38
  Q 38.00 117.78 38.05 118.27
  Q 38.38 121.52 39.65 123.73
  L 41.96 127.40
  Q 42.22 127.82 42.28 128.30
  L 42.90 133.64
  Q 43.21 133.95 44.17 133.91
  Q 44.69 133.89 44.58 134.40
  Q 44.44 135.07 43.84 135.72
  C 43.51 135.19 43.25 134.78 42.63 134.50
  Q 35.90 131.45 29.06 128.67
  C 20.17 125.06 12.93 116.86 12.73 106.98
  L 12.67 99.72
  Q 13.89 90.61 18.25 84.25
  Q 19.32 82.68 22.20 81.97
  Z
  M 30.12 113.98
  Q 28.80 112.38 28.50 110.12
  A 1.41 1.38 22.0 0 0 28.18 109.39
  Q 26.96 107.94 26.03 106.49
  Q 25.72 106.02 25.16 105.95
  A 2.98 2.73 81.4 0 1 22.96 104.17
  Q 22.63 103.38 21.81 103.67
  Q 20.33 104.19 19.68 105.62
  Q 19.18 106.70 19.61 107.75
  Q 20.38 109.61 20.77 111.50
  A 0.42 0.42 0.0 0 0 20.87 111.71
  L 28.98 121.22
  Q 29.19 121.47 29.50 121.39
  Q 29.66 121.35 29.81 121.39
  Q 29.87 121.40 29.87 121.46
  Q 29.88 121.58 29.85 121.71
  Q 29.84 121.75 29.88 121.77
  Q 32.21 122.99 34.02 124.39
  Q 38.60 127.93 36.54 122.52
  Q 35.52 119.83 34.33 116.80
  Q 33.63 115.02 30.90 114.44
  Q 30.43 114.35 30.12 113.98
  Z"
/>
<path fill="#4b9798" fill-opacity="0.867" d="
  M 25.97 83.28
  Q 28.29 84.27 28.95 86.98
  Q 29.64 89.89 30.49 96.07
  Q 30.56 96.57 30.84 96.98
  Q 31.67 98.21 31.30 99.62
  Q 31.18 100.11 30.73 100.34
  Q 28.71 101.38 29.21 103.76
  L 27.79 102.40
  Q 28.14 101.03 29.02 100.22
  Q 29.39 99.88 29.40 99.38
  Q 29.45 97.36 28.89 95.41
  Q 28.34 93.50 28.22 91.52
  Q 27.97 87.79 25.69 84.85
  Q 25.06 84.04 24.48 84.17
  Q 24.13 83.41 21.97 83.72
  Q 21.02 83.85 21.54 83.05
  Q 22.63 81.38 25.97 83.28
  Z"
/>
<path fill="#b6cac0" fill-opacity="0.976" d="
  M 24.48 84.17
  Q 25.06 84.04 25.69 84.85
  Q 27.97 87.79 28.22 91.52
  Q 28.34 93.50 28.89 95.41
  Q 29.45 97.36 29.40 99.38
  Q 29.39 99.88 29.02 100.22
  Q 28.14 101.03 27.79 102.40
  Q 25.68 101.09 23.90 98.96
  Q 22.65 97.46 22.22 94.94
  Q 21.83 92.70 21.28 90.51
  Q 21.17 90.09 21.39 89.71
  L 22.43 87.90
  Q 22.57 87.66 22.85 87.70
  Q 23.01 87.72 23.14 87.82
  A 0.27 0.27 0.0 0 0 23.56 87.67
  Q 23.80 86.74 23.26 85.88
  A 0.65 0.63 66.4 0 0 22.57 85.60
  Q 22.01 85.73 21.51 85.49
  Q 21.09 85.29 21.23 84.85
  Q 21.31 84.58 21.56 84.45
  Q 21.75 84.34 21.98 84.36
  Q 23.30 84.50 24.48 84.17
  Z"
/>
<path fill="#0e1110" fill-opacity="0.145" d="
  M 1.68 85.75
  A 1.31 1.30 22.0 0 1 2.15 86.85
  Q 1.87 90.58 2.58 94.80
  Q 3.22 98.53 2.87 103.15
  Q 2.56 107.17 2.87 111.29
  Q 3.66 121.99 2.99 134.69
  Q 2.97 134.96 2.70 134.96
  L 2.31 134.96
  Q 1.99 134.96 1.96 134.64
  C 1.79 132.36 1.42 130.31 1.65 127.96
  Q 1.91 125.26 1.22 122.24
  Q 0.64 119.70 0.67 111.00
  Q 0.71 98.16 0.79 85.70
  A 0.33 0.32 -70.0 0 1 1.32 85.45
  L 1.68 85.75
  Z"
/>
<path fill="#0e1110" fill-opacity="0.145" d="
  M 60.45 89.79
  Q 60.81 91.25 59.17 91.69
  Q 58.51 91.86 57.81 91.93
  Q 56.96 92.02 56.61 91.10
  A 1.51 1.51 0.0 0 1 57.72 89.09
  Q 58.67 88.89 59.99 89.30
  Q 60.36 89.41 60.45 89.79
  Z"
/>
<path fill="#0e1110" fill-opacity="0.145" d="
  M 73.27 93.74
  L 81.62 102.13
  L 87.98 114.69
  Q 88.51 118.30 90.50 122.24
  L 88.03 121.36
  A 0.88 0.88 0.0 0 0 87.20 121.49
  Q 86.16 122.30 85.25 123.33
  C 83.95 124.80 82.05 125.34 80.22 125.93
  Q 79.32 126.22 78.38 126.21
  Q 77.14 126.20 76.33 127.21
  Q 75.97 127.66 75.39 127.61
  Q 74.06 127.49 72.86 127.88
  A 2.68 2.67 -24.8 0 1 69.77 126.75
  L 67.24 122.68
  Q 66.95 122.21 66.84 121.68
  Q 66.51 120.23 65.58 119.28
  Q 63.54 117.21 61.26 114.52
  Q 61.05 114.27 61.09 113.94
  Q 61.13 113.69 60.93 113.58
  A 3.21 2.97 -87.2 0 1 59.63 112.03
  Q 58.50 109.20 61.16 108.63
  Q 61.47 108.57 61.74 108.73
  Q 62.69 109.32 63.86 109.14
  Q 64.21 109.08 64.22 108.73
  Q 64.23 108.25 63.92 107.92
  Q 63.60 107.58 63.15 107.61
  Q 62.50 107.65 61.86 107.69
  A 2.22 2.13 -86.0 0 1 59.66 105.05
  Q 59.78 104.41 59.23 104.07
  A 0.91 0.88 -76.6 0 1 58.81 103.36
  Q 58.72 101.86 59.97 101.08
  Q 60.49 100.74 61.11 100.86
  Q 63.96 101.41 65.09 98.54
  A 0.99 0.93 -5.7 0 1 65.50 98.07
  L 68.62 96.26
  A 0.89 0.87 35.1 0 1 69.22 96.16
  Q 71.24 96.52 72.25 95.30
  Q 72.67 94.79 72.64 95.45
  Q 72.61 95.99 73.17 96.14
  Q 73.72 96.28 73.34 96.70
  Q 73.18 96.89 73.00 96.89
  Q 72.34 96.89 72.27 97.54
  L 72.07 99.18
  Q 72.02 99.67 72.38 100.00
  Q 73.33 100.86 72.68 101.96
  A 1.35 1.34 -78.8 0 1 71.70 102.62
  Q 70.72 102.75 70.32 103.61
  A 0.39 0.39 0.0 0 0 70.62 104.16
  Q 70.78 104.18 70.95 104.17
  A 0.05 0.05 0.0 0 1 70.99 104.24
  L 68.74 107.82
  Q 68.44 108.29 68.99 108.31
  Q 69.19 108.32 69.30 108.12
  Q 69.36 108.03 69.46 108.06
  Q 71.27 108.64 71.13 110.34
  Q 71.08 110.92 71.59 111.21
  Q 71.91 111.38 72.01 111.74
  Q 72.26 112.62 72.86 111.93
  L 75.35 109.05
  Q 75.66 108.69 75.56 108.23
  Q 74.80 104.69 74.95 103.13
  Q 75.16 100.99 74.16 99.99
  Q 73.71 99.55 73.59 98.92
  Q 73.34 97.72 74.41 97.40
  Q 74.83 97.28 74.96 96.88
  Q 75.14 96.38 74.80 95.98
  Q 74.50 95.62 74.05 95.47
  Q 72.73 95.01 73.27 93.74
  Z"
/>
<path fill="#4b9798" fill-opacity="0.867" d="
  M 12.67 99.72
  L 12.73 106.98
  Q 12.02 103.37 12.67 99.72
  Z"
/>
<path fill="#4cc4b7" d="
  M 87.98 114.69
  L 81.62 102.13
  Q 86.17 107.08 88.49 114.38
  A 0.25 0.25 0.0 0 1 88.28 114.70
  Q 88.17 114.70 87.98 114.69
  Z"
/>
<path fill="#4b9798" fill-opacity="0.867" d="
  M 30.90 114.44
  Q 33.63 115.02 34.33 116.80
  Q 35.52 119.83 36.54 122.52
  Q 38.60 127.93 34.02 124.39
  Q 32.21 122.99 29.88 121.77
  Q 29.84 121.75 29.85 121.71
  Q 29.88 121.58 29.87 121.46
  Q 29.87 121.40 29.81 121.39
  Q 29.66 121.35 29.50 121.39
  Q 29.19 121.47 28.98 121.22
  L 20.87 111.71
  A 0.42 0.42 0.0 0 1 20.77 111.50
  Q 20.38 109.61 19.61 107.75
  Q 19.18 106.70 19.68 105.62
  Q 20.33 104.19 21.81 103.67
  Q 22.63 103.38 22.96 104.17
  A 2.98 2.73 81.4 0 0 25.16 105.95
  Q 25.72 106.02 26.03 106.49
  Q 26.96 107.94 28.18 109.39
  A 1.41 1.38 22.0 0 1 28.50 110.12
  Q 28.80 112.38 30.12 113.98
  Q 30.43 114.35 30.90 114.44
  Z"
/>
<path fill="#4b9798" fill-opacity="0.867" d="
  M 33.06 107.24
  Q 32.86 106.90 33.97 107.61
  Q 35.37 108.77 36.75 109.23
  Q 45.08 112.00 53.05 115.38
  Q 51.86 115.52 52.85 116.86
  Q 53.16 117.28 53.13 117.79
  Q 52.99 120.18 54.31 121.95
  A 1.45 1.42 -65.0 0 1 54.59 122.74
  C 54.63 124.19 55.28 125.08 54.49 126.53
  Q 53.42 128.50 51.02 128.17
  Q 50.01 128.04 49.27 127.36
  Q 48.42 126.58 47.50 125.85
  Q 47.20 125.62 46.83 125.55
  Q 45.68 125.34 44.71 124.62
  Q 43.08 123.41 42.11 124.83
  Q 41.82 125.26 41.40 124.96
  L 39.65 123.73
  Q 38.38 121.52 38.05 118.27
  Q 38.00 117.78 37.71 117.38
  Q 36.66 115.93 36.68 114.06
  Q 36.68 113.82 36.85 113.65
  L 37.13 113.37
  A 0.12 0.01 -45.6 0 0 37.21 113.27
  Q 36.37 113.61 36.04 112.84
  A 0.50 0.49 -26.9 0 1 36.24 112.23
  Q 36.45 112.09 36.41 111.85
  Q 36.37 111.61 36.13 111.56
  Q 35.09 111.36 34.74 110.52
  Q 34.58 110.12 34.15 110.07
  Q 32.91 109.93 32.10 110.63
  A 1.23 1.22 -41.1 0 1 30.38 110.52
  Q 28.55 108.47 28.26 105.72
  Q 28.18 104.97 28.76 105.44
  Q 30.72 107.01 33.06 107.24
  Z"
/>
<path fill="#509c9d" fill-opacity="0.980" d="
  M 53.05 115.38
  Q 66.08 120.64 68.75 133.00
  Q 71.29 144.77 64.04 156.09
  Q 62.15 148.97 57.40 144.60
  Q 52.64 140.22 45.69 136.55
  Q 45.72 136.21 45.59 136.06
  Q 45.27 135.69 45.75 135.72
  Q 45.89 135.73 45.96 135.45
  Q 46.00 135.28 45.88 135.15
  Q 45.77 135.03 45.62 135.11
  Q 45.26 135.30 45.50 134.97
  Q 46.43 133.69 45.40 132.40
  Q 44.89 131.75 44.58 131.01
  A 0.65 0.65 0.0 0 0 44.28 130.68
  L 43.98 130.51
  Q 43.48 130.24 43.38 130.81
  L 42.90 133.64
  L 42.28 128.30
  Q 42.22 127.82 41.96 127.40
  L 39.65 123.73
  L 41.40 124.96
  Q 41.82 125.26 42.11 124.83
  Q 43.08 123.41 44.71 124.62
  Q 45.68 125.34 46.83 125.55
  Q 47.20 125.62 47.50 125.85
  Q 48.42 126.58 49.27 127.36
  Q 50.01 128.04 51.02 128.17
  Q 53.42 128.50 54.49 126.53
  C 55.28 125.08 54.63 124.19 54.59 122.74
  A 1.45 1.42 -65.0 0 0 54.31 121.95
  Q 52.99 120.18 53.13 117.79
  Q 53.16 117.28 52.85 116.86
  Q 51.86 115.52 53.05 115.38
  Z"
/>
<path fill="#4b9798" fill-opacity="0.867" d="
  M 45.69 136.55
  Q 45.00 136.24 44.02 136.31
  L 43.84 135.72
  Q 44.44 135.07 44.58 134.40
  Q 44.69 133.89 44.17 133.91
  Q 43.21 133.95 42.90 133.64
  L 43.38 130.81
  Q 43.48 130.24 43.98 130.51
  L 44.28 130.68
  A 0.65 0.65 0.0 0 1 44.58 131.01
  Q 44.89 131.75 45.40 132.40
  Q 46.43 133.69 45.50 134.97
  Q 45.26 135.30 45.62 135.11
  Q 45.77 135.03 45.88 135.15
  Q 46.00 135.28 45.96 135.45
  Q 45.89 135.73 45.75 135.72
  Q 45.27 135.69 45.59 136.06
  Q 45.72 136.21 45.69 136.55
  Z"
/>
<path fill="#b6cac0" fill-opacity="0.976" d="
  M 44.02 136.31
  Q 45.00 136.24 45.69 136.55
  Q 52.64 140.22 57.40 144.60
  Q 62.15 148.97 64.04 156.09
  C 60.32 160.91 52.46 167.43 46.18 165.61
  C 44.11 165.01 43.91 163.08 43.92 161.25
  Q 44.01 148.76 44.02 136.31
  Z"
/>
</svg>
